<svg width="145" height="40" viewBox="0 0 145 40" fill="none" xmlns="http://www.w3.org/2000/svg">
    <path
        d="M58.4251 7.81362C54.8873 5.71989 50.7169 4.97186 46.675 5.70601C45.2844 5.95077 43.9249 6.34825 42.6209 6.89128C39.0129 2.26048 32.6654 -0.466262 26.6519 0.0659406C20.6025 0.606624 15.722 4.13697 12.9129 10.0124C12.4746 10.9256 12.1009 11.8687 11.7947 12.8346C11.484 12.8494 11.1838 12.877 10.8858 12.9194C7.06424 13.4495 3.89157 15.4638 1.95542 18.5849C-0.0888214 21.9387 -0.556615 26.0256 0.676626 29.7569L0.701991 29.8311C0.837268 30.1852 0.989454 30.5329 1.15432 30.8701L1.12473 30.9125L1.5834 31.6588C1.66373 31.7945 1.74405 31.9281 1.83071 32.0596C4.17058 35.8762 7.23333 37.9032 12.0716 38.8637C15.5719 39.5592 20.0825 39.7118 25.7768 39.7118C27.6644 39.7118 29.7231 39.697 31.4838 39.68C38.1462 39.6207 48.2645 39.68 49.3975 39.68H49.4228C57.3239 39.68 61.5682 35.9483 63.7368 32.8165C66.9074 28.2409 67.6789 21.8438 65.7026 16.5176C64.3407 12.8666 61.772 9.79443 58.4251 7.81362ZM5.42823 20.7476C6.33924 19.2952 8.11475 17.4484 11.4417 16.9883C15.6078 16.4094 20.3573 20.1836 24.8997 24.225C21.3338 28.93 15.4662 33.2618 10.015 32.6533C7.39609 32.367 5.50644 30.8955 4.53836 28.4126C3.72537 25.8528 4.04956 23.0658 5.42823 20.7625V20.7476ZM27.0155 4.15817C31.3887 3.76591 36.0748 5.64241 38.9135 8.83986C34.9207 11.397 30.9998 15.4129 27.2416 20.8218C23.1115 17.1749 19.5456 14.516 15.9249 13.3922C16.1215 12.8536 16.3476 12.3172 16.5991 11.7914C18.7615 7.27506 22.4604 4.56316 27.0155 4.15817ZM19.8923 34.1948C23.3482 32.1953 26.5209 29.1696 29.0658 25.4463C29.1602 25.3049 29.2532 25.1636 29.3448 25.0222L29.8901 24.2016C35.5612 15.7458 41.6042 10.7482 47.3662 9.75372C50.453 9.18813 53.6396 9.754 56.3452 11.3482C58.8829 12.8476 60.8315 15.1742 61.8662 17.9403C63.3669 21.9689 62.7666 27.0111 60.3866 30.4609C58.0742 33.7982 54.2886 35.5624 49.4376 35.5624C48.9895 35.5624 38.3851 35.5009 31.4585 35.5624C25.5655 35.6154 21.0612 35.6302 17.508 35.397C18.3266 35.0455 19.1228 34.644 19.8923 34.1948ZM91.4559 25.5862V33.6011C91.4559 34.9946 90.3298 36.1242 88.9406 36.1242C87.5515 36.1242 86.4253 34.9946 86.4253 33.6011V25.5862C86.4253 22.5753 84.2271 20.1582 81.5638 20.1582C78.2664 20.1582 76.5755 23.4659 76.5755 26.3919V33.6011C76.5755 35.0063 75.4399 36.1455 74.039 36.1455C72.6382 36.1455 71.5026 35.0063 71.5026 33.6011V17.4017C71.5026 15.9965 72.6382 14.8574 74.039 14.8574C75.1198 14.8628 76.0747 15.5642 76.4064 16.596C77.9421 15.5973 79.7336 15.067 81.5638 15.0694C87.0172 15.0694 91.4559 19.7765 91.4559 25.5862ZM113.455 17.953V25.7134C113.455 31.5655 108.932 36.3575 103.394 36.3575C97.8985 36.3575 93.3752 31.5655 93.3752 25.7134V17.6138C93.3752 16.2144 94.432 15.0694 95.7425 15.0694C97.0953 15.0694 98.4058 16.2144 98.4058 17.6138V25.7134C98.4058 28.7667 100.942 31.2263 103.394 31.2263C106.269 31.2263 108.425 28.7667 108.425 25.7134V17.953C108.425 16.5112 109.904 15.4086 111.046 15.4086C111.702 15.423 112.326 15.6998 112.779 16.1776C113.231 16.6553 113.475 17.2944 113.455 17.953ZM126.97 14.7301C124.855 14.7414 122.787 15.3594 121.01 16.5112V6.58807C121.01 5.17113 119.865 4.02247 118.452 4.02247C117.04 4.02247 115.895 5.17113 115.895 6.58807V33.5587C115.899 34.2395 116.173 34.8905 116.657 35.3679C117.141 35.8453 117.795 36.1098 118.473 36.103C119.586 36.0958 120.571 35.3802 120.925 34.322C122.703 35.5494 124.813 36.2006 126.97 36.188C132.877 36.188 137.666 31.3844 137.666 25.459C137.666 19.5336 132.877 14.7301 126.97 14.7301ZM126.97 31.0567C123.889 31.0567 121.39 28.5505 121.39 25.459C121.39 22.3675 123.889 19.8613 126.97 19.8613C130.052 19.8613 132.551 22.3675 132.551 25.459C132.552 26.9441 131.965 28.3689 130.918 29.419C129.871 30.4691 128.451 31.0584 126.97 31.0567ZM144.827 8.53877V8.75081C144.827 10.2029 143.653 11.38 142.206 11.38C140.758 11.38 139.585 10.2029 139.585 8.75081V8.53877C139.585 7.59945 140.084 6.73148 140.895 6.26181C141.706 5.79215 142.705 5.79215 143.516 6.26181C144.327 6.73148 144.827 7.59945 144.827 8.53877ZM144.827 17.2321V33.6011C144.827 34.5404 144.327 35.4084 143.516 35.878C142.705 36.3477 141.706 36.3477 140.895 35.878C140.084 35.4084 139.585 34.5404 139.585 33.6011V17.2321C139.585 15.78 140.758 14.6029 142.206 14.6029C143.653 14.6029 144.827 15.78 144.827 17.2321Z"
        fill="white" />
</svg>